[img]http://img96.imageshack.us/img96/7159/thevampirediariesseason.png[/img]

[size=200][color=black]TV INFO[/color][/size]

[code]The Vampire Diaries S04E08 HDTV x264 AAC-V3nom

Format                                   : MPEG-4
Format profile                           : Base Media / Version 2
Codec ID                                 : mp42
File size                                : 149 MiB
Duration                                 : 42mn 0s
Overall bit rate mode                    : Variable
Overall bit rate                         : 495 Kbps
Encoded date                             : UTC 2012-12-07 13:51:25
Tagged date                              : UTC 2012-12-07 14:07:05

Video
ID                                       : 1
Format                                   : AVC
Format/Info                              : Advanced Video Codec
Format profile                           : Main@L3.0
Format settings, CABAC                   : Yes
Format settings, ReFrames                : 4 frames
Codec ID                                 : avc1
Codec ID/Info                            : Advanced Video Coding
Duration                                 : 42mn 0s
Bit rate mode                            : Variable
Bit rate                                 : 367 Kbps
Width                                    : 640 pixels
Height                                   : 360 pixels
Display aspect ratio                     : 16:9
Frame rate mode                          : Variable
Frame rate                               : 23.976 fps
Minimum frame rate                       : 23.974 fps
Maximum frame rate                       : 90 000.000 fps
Color space                              : YUV
Chroma subsampling                       : 4:2:0
Bit depth                                : 8 bits
Scan type                                : Progressive
Bits/(Pixel*Frame)                       : 0.066
Stream size                              : 109 MiB (73%)
Writing library                          : x264 core 112

Audio
ID                                       : 2
Format                                   : AAC
Format/Info                              : Advanced Audio Codec
Format profile                           : LC
Codec ID                                 : 40
Duration                                 : 42mn 0s
Bit rate mode                            : Variable
Bit rate                                 : 128 Kbps
Maximum bit rate                         : 242 Kbps
Channel(s)                               : 2 channels
Channel positions                        : Front: L R
Sampling rate                            : 48.0 KHz
Compression mode                         : Lossy
Delay relative to video                  : 42ms
Stream size                              : 38.4 MiB (26%)
Encoded date                             : UTC 2012-12-07 13:51:25
Tagged date                              : UTC 2012-12-07 14:07:03[/code]

[size=200][color=black]SOURCE[/color][/size]

[code]The.Vampire.Diaries.S04E08.HDTV.XviD-AFG(THANKS)[/code]

[size=200][color=black]SCREENSHOTS[/color][/size]

[img]http://img72.imageshack.us/img72/7880/thevampirediariess04e08.jpg[/img]

[img]http://kastatic.com/i2/users/133df62bbf28e62494bb17fe11078f1a.gif[/img][img]http://kastatic.com/i2/users/133df62bbf28e62494bb17fe11078f1a.gif[/img]
